:SAMPLES-PER-SECOND 30
:FULLY-SPECIFIED
:DEGREES
345
root  29.4929 36.6841 -12.6253 158.588 -67.7253 -160.862
RightUpLeg  -24.6865 -0.991458 6.75409
RightLeg  28.196 -2.65783 -1.78171
RightFoot  -0.721272 0.117766 -1.30102
RightToes  5.82063e-011 0 -3.6325e-017
Spine  8.66313 -3.58794 11.8321
Spine1  11.6246 -2.82113 2.4122
HEad  -8.64981 10.3683 -9.70704
LeftShoulder1  0.472954 2.19363 -29.9937
LeftArm  -6.90966 15.3128 -45.0056
LeftForeArm  25.3527 -5.64947 -7.28959
LeftHand  -0.037901 5.8968 -1.27996
RightShoulder  -0.567549 -5.22577 26.1874
RightArm  12.2748 2.11358 42.5207
RightForeArm  1.78639 16.7339 4.99901
RightHand  -1.17478 7.85327 -10.6391
LeftUpLeg  11.2441 -2.57567 5.33777
LeftLeg  47.4506 -16.195 -17.6493
LeftFoot  1.93194 1.5032 -12.9123
LeftToes  2.58842e-009 -1.78069e-010 3.24654e-012
346
root  28.3976 36.7914 -13.1905 154.703 -68.9681 -157.179
RightUpLeg  -22.7783 -1.66706 7.61425
RightLeg  29.7209 -3.57115 -2.45191
RightFoot  -3.47273 0.0674903 -1.32835
RightToes  5.82063e-011 0 -3.6325e-017
Spine  8.9349 -3.25253 14.559
Spine1  12.2983 -1.73117 1.80204
HEad  -8.17415 7.83699 -9.07397
LeftShoulder1  0.449144 2.25865 -29.9658
LeftArm  -6.00508 15.0377 -45.3272
LeftForeArm  30.2872 -7.04558 -7.76193
LeftHand  -0.00362318 4.32588 -2.47427
RightShoulder  -0.632455 -5.39645 26.7123
RightArm  11.8421 2.81867 42.6272
RightForeArm  0.613261 20.2014 4.66161
RightHand  -1.16484 7.29888 -10.9657
LeftUpLeg  4.86258 -4.92473 6.34992
LeftLeg  56.5097 -12.0693 -18.3351
LeftFoot  11.9041 3.17177 -15.8968
LeftToes  2.58842e-009 -1.78069e-010 3.24654e-012
347
root  27.1807 37.1444 -13.8328 152.961 -70.7676 -156.212
RightUpLeg  -19.3106 -2.6366 7.22944
RightLeg  29.5129 -4.30677 -2.88828
RightFoot  -5.6485 0.0429695 -1.6404
RightToes  5.82063e-011 0 -3.6325e-017
Spine  8.90621 -2.85985 15.2995
Spine1  12.7149 -0.99021 1.16991
HEad  -7.41247 5.72989 -8.05069
LeftShoulder1  0.427622 2.32748 -30.254
LeftArm  -3.99045 14.9513 -44.9961
LeftForeArm  32.061 -9.85283 -7.93555
LeftHand  0.0475464 2.23787 -2.27995
RightShoulder  -0.58068 -5.25153 26.4755
RightArm  11.4431 3.74901 43.6523
RightForeArm  1.32213 22.8636 4.8293
RightHand  -1.11468 7.94094 -10.0217
LeftUpLeg  -0.685607 -6.83602 6.38614
LeftLeg  62.7192 -7.97232 -15.8242
LeftFoot  8.29884 2.44206 -14.253
LeftToes  2.58842e-009 -1.78069e-010 3.24654e-012
348
root  25.9344 37.555 -14.4706 152.938 -72.6046 -156.901
RightUpLeg  -15.4395 -4.61274 6.3096
RightLeg  28.2127 -4.09281 -2.62502
RightFoot  -7.47051 0.0166816 -1.97877
RightToes  5.82063e-011 0 -3.6325e-017
Spine  8.52376 -2.43929 15.3606
Spine1  12.8733 -0.318602 0.278967
HEad  -5.99171 4.21262 -7.55839
LeftShoulder1  0.40567 2.39061 -30.3572
LeftArm  -1.12007 14.9735 -44.6908
LeftForeArm  28.7668 -12.7936 -7.43784
LeftHand  0.036799 2.57518 -2.12461
RightShoulder  -0.584274 -5.27338 26.2602
RightArm  12.9827 5.21583 45.0916
RightForeArm  1.28834 24.8072 5.24145
RightHand  -1.25541 8.63191 -10.7241
LeftUpLeg  -6.12065 -8.17986 5.74917
LeftLeg  65.8396 -5.31935 -12.1905
LeftFoot  5.88424 1.34641 -9.17333
LeftToes  2.58842e-009 -1.78069e-010 3.24654e-012
349
root  24.6772 37.9394 -15.0743 154.368 -73.715 -158.725
RightUpLeg  -11.6733 -5.93093 5.35625
RightLeg  26.2619 -3.84036 -2.23983
RightFoot  -8.89428 -0.0166007 -2.02612
RightToes  5.82063e-011 0 -3.6325e-017
Spine  8.22618 -1.8883 15.9673
Spine1  12.3619 0.752335 -1.726
HEad  -4.43707 2.80617 -7.10911
LeftShoulder1  0.421312 2.32333 -29.5828
LeftArm  1.2195 15.8267 -45.0688
LeftForeArm  22.8204 -16.1249 -6.20945
LeftHand  -0.00338514 3.96278 -1.48451
RightShoulder  -0.635512 -5.4104 26.6114
RightArm  14.773 6.65977 46.309
RightForeArm  2.65741 26.9862 5.67223
RightHand  -1.16675 8.14331 -10.3358
LeftUpLeg  -11.1161 -8.57905 5.07888
LeftLeg  65.8688 -3.59465 -8.13476
LeftFoot  4.64675 0.777625 -5.72634
LeftToes  2.58842e-009 -1.78069e-010 3.24654e-012
